<?xml version="1.0" standalone="no"?>
<!DOCTYPE svg PUBLIC "-//W3C//DTD SVG 20010904//EN"
 "http://www.w3.org/TR/2001/REC-SVG-20010904/DTD/svg10.dtd">
<svg version="1.0" xmlns="http://www.w3.org/2000/svg"
 width="228.000000pt" height="228.000000pt" viewBox="0 0 228.000000 228.000000"
 preserveAspectRatio="xMidYMid meet">
<metadata>
Created by potrace 1.14, written by Peter Selinger 2001-2017
</metadata>
<g transform="translate(0.000000,228.000000) scale(0.100000,-0.100000)"
fill="#000000" stroke="none">
<path d="M0 1140 l0 -1140 1140 0 1140 0 0 1140 0 1140 -1140 0 -1140 0 0
-1140z m1638 557 l544 -544 -541 -544 -540 -544 -540 540 c-298 297 -540 543
-539 547 2 5 1069 1088 1072 1088 1 0 246 -245 544 -543z"/>
<path d="M405 1487 c-3 -7 -4 -152 -3 -322 l3 -310 54 -3 54 -3 -5 263 c-3
177 -1 248 5 218 21 -100 108 -463 113 -471 3 -5 29 -9 59 -9 l53 0 22 93 c11
50 37 164 56 252 20 88 36 161 37 162 1 1 0 -113 -2 -253 l-3 -254 56 0 56 0
0 325 0 325 -85 0 c-47 0 -85 -2 -85 -4 0 -2 -15 -72 -34 -157 -18 -85 -39
-185 -46 -224 -7 -38 -16 -79 -20 -90 -8 -17 -9 -16 -9 8 -1 15 -23 125 -51
244 -27 119 -50 217 -50 219 0 2 -38 4 -85 4 -60 0 -87 -4 -90 -13z"/>
<path d="M1010 1487 c0 -11 80 -342 137 -569 l17 -68 68 0 c66 0 68 1 74 28 3
15 39 158 80 319 41 160 74 294 74 297 0 3 -27 6 -60 6 -54 0 -60 -2 -65 -22
-7 -31 -52 -243 -76 -356 -10 -52 -19 -104 -20 -115 -1 -21 -10 20 -73 328
-15 72 -29 138 -32 148 -4 14 -17 17 -65 17 -41 0 -59 -4 -59 -13z"/>
<path d="M1500 1176 l0 -326 65 0 65 0 0 110 0 110 38 0 c133 0 216 87 216
225 0 86 -26 142 -81 176 -34 21 -52 24 -170 27 l-133 4 0 -326z m215 208 c23
-9 45 -57 45 -99 0 -42 -22 -90 -45 -99 -9 -3 -32 -6 -51 -6 l-34 0 0 105 0
105 34 0 c19 0 42 -3 51 -6z"/>
</g>
</svg>
